<svg width="696" height="700" viewBox="0 0 696 700" fill="none" xmlns="http://www.w3.org/2000/svg">
<path d="M244.715 141.151V0.000976562C248.438 0.000976562 252.094 0.000976562 255.682 0.000976562C302.461 0.271767 349.24 -0.540605 395.951 1.15184C488.156 4.46902 563.706 43.0567 623.348 112.988C649.479 143.588 668.976 178.114 680.823 216.701C687.864 239.515 690.978 263.142 692.671 286.836C694.431 311.749 696.191 336.729 695.988 361.642C695.785 383.779 693.212 405.849 691.181 427.918C689.421 446.941 686.442 465.761 680.756 484.04C668.638 523.033 648.532 557.627 622.4 588.768C595.524 620.789 563.3 646.311 526.337 665.74C525.051 666.417 523.765 666.959 523.02 667.297C526.066 607.859 524.103 548.285 524.848 488.846C524.848 486.612 525.186 483.972 526.405 482.212C541.434 460.007 549.761 435.365 554.296 409.166C559.103 381.681 561.066 353.992 558.494 326.236C556.124 300.308 553.146 274.244 542.923 250.212C517.74 191.112 473.398 155.096 409.762 143.791C400.013 142.031 389.926 141.421 379.975 141.354C336.784 141.083 293.525 141.218 250.266 141.151C248.506 141.151 246.813 141.151 244.715 141.151Z" fill="#FFFF"/>
<path d="M418.426 421.555H279.781V282.64C280.864 282.572 282.015 282.369 283.166 282.369C303.611 282.369 324.056 282.233 344.433 282.369C380.109 282.707 409.422 306.537 417.072 341.401C417.817 344.854 418.358 348.374 418.358 351.894C418.494 374.979 418.358 398.064 418.358 421.555H418.426Z" fill="#FFFF"/>
<path d="M0 624.577L138.036 486.542C138.036 326.707 138.036 166.873 138.036 7.10637V0.404297C133.094 0.810483 128.761 0.945878 124.428 1.48746C114.274 2.70602 103.916 3.1122 94.0321 5.61702C62.7558 13.6053 38.4523 31.816 20.6478 58.5566C9.13919 75.8195 2.03093 94.9103 0.947768 115.626C-0.135395 136.274 0.0676977 157.057 0.0676977 177.772C0.0676977 326.707 0 475.642 0 624.577Z" fill="#FF9D00"/>
<path d="M417.773 567.237C417.773 565.477 417.773 563.784 417.773 561.482H410.8C345.201 561.482 279.602 561.482 214.071 561.482L76.2383 699.315C167.495 699.315 258.751 699.315 350.008 699.315C363.48 699.315 376.274 697.081 387.851 689.973C406.468 678.532 417.232 662.013 417.638 639.944C418.112 615.708 417.773 591.405 417.773 567.169V567.237Z" fill="#FF9D00"/>
</svg>
